<svg width="1400" height="820" viewBox="0 0 1400 820" fill="none" xmlns="http://www.w3.org/2000/svg">
  <rect width="1400" height="820" rx="28" fill="#090B10"/>
  <rect x="22" y="22" width="1356" height="78" rx="20" fill="#11141B" stroke="rgba(255,255,255,0.08)"/>
  <text x="56" y="70" fill="#F4F5F7" font-family="Arial, sans-serif" font-size="38" font-weight="700">F1 Strategy Engine</text>
  <text x="56" y="70" fill="#FF1739" font-family="Arial, sans-serif" font-size="38" font-weight="700">F1</text>
  <rect x="914" y="38" width="138" height="44" rx="14" fill="#1B2030" stroke="#FF1739"/>
  <text x="944" y="65" fill="#F4F5F7" font-family="Arial, sans-serif" font-size="18" font-weight="700">OPTIMIZER</text>

  <rect x="22" y="124" width="408" height="654" rx="24" fill="#11141B" stroke="rgba(255,255,255,0.08)"/>
  <text x="52" y="166" fill="#8F97AA" font-family="Arial, sans-serif" font-size="18" letter-spacing="2">OPTIMIZER CONFIG</text>
  <rect x="52" y="204" width="348" height="56" rx="14" fill="#1B2030" stroke="rgba(255,255,255,0.12)"/>
  <text x="72" y="238" fill="#F4F5F7" font-family="Arial, sans-serif" font-size="26" font-weight="700">VER - Max Verstappen</text>
  <rect x="52" y="294" width="348" height="56" rx="14" fill="#1B2030" stroke="rgba(255,255,255,0.12)"/>
  <rect x="52" y="384" width="348" height="56" rx="14" fill="#1B2030" stroke="rgba(255,255,255,0.12)"/>
  <rect x="52" y="474" width="348" height="56" rx="14" fill="#1B2030" stroke="rgba(255,255,255,0.12)"/>
  <rect x="52" y="564" width="348" height="56" rx="14" fill="#1B2030" stroke="rgba(255,255,255,0.12)"/>
  <rect x="52" y="654" width="348" height="60" rx="16" fill="#FF1739"/>
  <text x="144" y="692" fill="#FFFFFF" font-family="Arial, sans-serif" font-size="24" font-weight="700">RUN OPTIMIZER</text>

  <rect x="454" y="124" width="924" height="184" rx="24" fill="#151922" stroke="rgba(255,255,255,0.08)"/>
  <text x="486" y="160" fill="#8F97AA" font-family="Arial, sans-serif" font-size="16" letter-spacing="2">OPTIMIZED STRATEGY</text>
  <text x="486" y="218" fill="#F4F5F7" font-family="Arial, sans-serif" font-size="56" font-weight="700">COVER UNDERCUT WITH MEDIUM</text>
  <text x="486" y="258" fill="#B6BDD0" font-family="Arial, sans-serif" font-size="24">Single-stop recommendation with stronger pace retention and lower late-stint tyre cliff risk.</text>
  <rect x="1036" y="152" width="130" height="118" rx="18" fill="#1D2230" stroke="#A78317"/>
  <text x="1062" y="186" fill="#8F97AA" font-family="Arial, sans-serif" font-size="15">WIN PROB</text>
  <text x="1062" y="242" fill="#FFFFFF" font-family="Arial, sans-serif" font-size="44" font-weight="700">95%</text>
  <rect x="1184" y="152" width="130" height="118" rx="18" fill="#1D2230" stroke="rgba(255,255,255,0.10)"/>
  <text x="1206" y="186" fill="#8F97AA" font-family="Arial, sans-serif" font-size="15">TIME GAIN</text>
  <text x="1212" y="242" fill="#FFFFFF" font-family="Arial, sans-serif" font-size="44" font-weight="700">-8.9s</text>

  <rect x="454" y="332" width="292" height="364" rx="22" fill="#11141B" stroke="rgba(255,255,255,0.08)"/>
  <text x="480" y="370" fill="#8F97AA" font-family="Arial, sans-serif" font-size="18">RANK 1</text>
  <text x="480" y="422" fill="#F4F5F7" font-family="Arial, sans-serif" font-size="30" font-weight="700">Aggressive two-stop</text>
  <text x="480" y="464" fill="#B6BDD0" font-family="Arial, sans-serif" font-size="22">1:21:07.414</text>
  <rect x="480" y="510" width="220" height="14" rx="7" fill="#242938"/>
  <rect x="480" y="510" width="164" height="14" rx="7" fill="#FF1739"/>

  <rect x="770" y="332" width="292" height="364" rx="22" fill="#11141B" stroke="rgba(255,255,255,0.08)"/>
  <text x="796" y="370" fill="#8F97AA" font-family="Arial, sans-serif" font-size="18">RANK 2</text>
  <text x="796" y="422" fill="#F4F5F7" font-family="Arial, sans-serif" font-size="30" font-weight="700">Flexible one-stop</text>
  <text x="796" y="464" fill="#B6BDD0" font-family="Arial, sans-serif" font-size="22">1:21:11.552</text>
  <rect x="796" y="510" width="220" height="14" rx="7" fill="#242938"/>
  <rect x="796" y="510" width="134" height="14" rx="7" fill="#FFD60A"/>

  <rect x="1086" y="332" width="292" height="364" rx="22" fill="#11141B" stroke="rgba(255,255,255,0.08)"/>
  <text x="1112" y="370" fill="#8F97AA" font-family="Arial, sans-serif" font-size="18">RANK 3</text>
  <text x="1112" y="422" fill="#F4F5F7" font-family="Arial, sans-serif" font-size="30" font-weight="700">Hard tyre extension</text>
  <text x="1112" y="464" fill="#B6BDD0" font-family="Arial, sans-serif" font-size="22">1:21:18.029</text>
  <rect x="1112" y="510" width="220" height="14" rx="7" fill="#242938"/>
  <rect x="1112" y="510" width="98" height="14" rx="7" fill="#ECEDEF"/>
</svg>
